<?xml version="1.0" encoding="UTF-8" standalone="no"?>
<!-- Created with Inkscape (http://www.inkscape.org/) -->

<svg
   width="210mm"
   height="297mm"
   viewBox="0 0 210 297"
   version="1.1"
   id="svg5"
   xml:space="preserve"
   inkscape:version="1.2.1 (9c6d41e410, 2022-07-14)"
   sodipodi:docname="sixteenth.svg"
   xmlns:inkscape="http://www.inkscape.org/namespaces/inkscape"
   xmlns:sodipodi="http://sodipodi.sourceforge.net/DTD/sodipodi-0.dtd"
   xmlns="http://www.w3.org/2000/svg"
   xmlns:svg="http://www.w3.org/2000/svg"><sodipodi:namedview
     id="namedview7"
     pagecolor="#ffffff"
     bordercolor="#000000"
     borderopacity="0.25"
     inkscape:showpageshadow="2"
     inkscape:pageopacity="0.0"
     inkscape:pagecheckerboard="0"
     inkscape:deskcolor="#d1d1d1"
     inkscape:document-units="mm"
     showgrid="false"
     inkscape:zoom="0.74564394"
     inkscape:cx="396.97231"
     inkscape:cy="561.9304"
     inkscape:window-width="1920"
     inkscape:window-height="1017"
     inkscape:window-x="-8"
     inkscape:window-y="-8"
     inkscape:window-maximized="1"
     inkscape:current-layer="layer1" /><defs
     id="defs2" /><g
     inkscape:label="Layer 1"
     inkscape:groupmode="layer"
     id="layer1"><path
       stroke-width="0.3"
       fill="#009d96"
       stroke="none"
       stroke-dasharray="none"
       d="m 142.31345,61.727895 m 7.35696,-5.22288 c 0.11232,0 0.2808,0 0.30888,0 0,0 0.0281,0 0.0281,0 0,0 0.16848,0 0.30888,0 2.5272,0.1404 4.01544,1.79712 4.01544,3.87504 0,1.01088 -0.33696,2.16216 -1.17936,3.25728 -1.60056,2.16216 -4.212,3.34152 -6.48648,3.34152 -1.76904,0 -3.28536,-0.702 -4.01544,-2.13408 -0.22464,-0.5616 -0.33696,-1.09512 -0.33696,-1.6848 0,-3.06072 3.42576,-6.4584 7.35696,-6.65496"
       id="path11"
       style="fill:#ffffff" /></g></svg>
